<?xml version="1.0" standalone="no"?><!-- Generator: Gravit.io --><svg xmlns="http://www.w3.org/2000/svg" xmlns:xlink="http://www.w3.org/1999/xlink" style="isolation:isolate" viewBox="0 0 512 512" width="512" height="512"><defs><clipPath id="_clipPath_OuVaEdNFO5rqyR9HBx3ykHEGEFyLAIC9"><rect width="512" height="512"/></clipPath></defs><g clip-path="url(#_clipPath_OuVaEdNFO5rqyR9HBx3ykHEGEFyLAIC9)"><path d=" M 263.169 347 C 283.996 322.453 296.564 290.682 296.564 256 C 296.564 178.3 233.482 115.218 155.782 115.218 C 78.082 115.218 15 178.3 15 256 C 15 333.7 78.082 396.782 155.782 396.782 C 192.112 396.782 225.247 382.991 250.232 360.362 L 239 360.362 L 239 347 L 263.169 347 Z " fill="none" vector-effect="non-scaling-stroke" stroke-width="4" stroke="rgb(255,255,255)" stroke-linejoin="miter" stroke-linecap="square" stroke-miterlimit="3"/><path d=" M 215.436 256 C 215.436 178.3 278.518 115.218 356.218 115.218 C 433.918 115.218 497 178.3 497 256 C 497 333.7 433.918 396.782 356.218 396.782 C 278.518 396.782 215.436 333.7 215.436 256 Z " fill="none" vector-effect="non-scaling-stroke" stroke-width="4" stroke="rgb(255,255,255)" stroke-linejoin="miter" stroke-linecap="square" stroke-miterlimit="3"/></g></svg>